<svg width="900" height="420" viewBox="0 0 900 420" fill="none" xmlns="http://www.w3.org/2000/svg" role="img" aria-label="邀请链接的极简插画">
  <rect width="900" height="420" fill="#F8F6F0"/>
  <circle cx="450" cy="210" r="124" fill="#E7EEE9"/>
  <rect x="226" y="139" width="186" height="132" rx="16" fill="#FFFEFA" stroke="#233B37" stroke-width="5"/>
  <path d="M232 151L319 216L406 151" stroke="#233B37" stroke-width="5" stroke-linecap="round" stroke-linejoin="round"/>
  <circle cx="319" cy="272" r="24" fill="#C49A5A"/>
  <path d="M308 272H330" stroke="#233B37" stroke-width="5" stroke-linecap="round"/>
  <path d="M319 261V283" stroke="#233B37" stroke-width="5" stroke-linecap="round"/>
  <path d="M414 205H486" stroke="#233B37" stroke-width="5" stroke-linecap="round"/>
  <path d="M468 187L489 205L468 223" stroke="#233B37" stroke-width="5" stroke-linecap="round" stroke-linejoin="round"/>
  <rect x="488" y="139" width="186" height="132" rx="16" fill="#FFFEFA" stroke="#233B37" stroke-width="5"/>
  <path d="M494 151L581 216L668 151" stroke="#233B37" stroke-width="5" stroke-linecap="round" stroke-linejoin="round"/>
  <circle cx="581" cy="272" r="24" fill="#F0E7D8" stroke="#C49A5A" stroke-width="5"/>
  <path d="M570 271L579 280L594 260" stroke="#233B37" stroke-width="5" stroke-linecap="round" stroke-linejoin="round"/>
  <path d="M240 319C331 343 529 350 660 319" stroke="#C49A5A" stroke-width="7" stroke-linecap="round" stroke-dasharray="1 20"/>
</svg>
