<svg width="900" height="420" viewBox="0 0 900 420" fill="none" xmlns="http://www.w3.org/2000/svg" role="img" aria-label="在留期间更新文件的极简插画">
  <rect width="900" height="420" rx="0" fill="#F8F6F0"/>
  <path d="M162 297C239 256 278 167 377 184C461 198 488 282 585 262C654 248 687 202 754 220" stroke="#D7DED8" stroke-width="18" stroke-linecap="round"/>
  <rect x="248" y="76" width="272" height="286" rx="16" fill="#FFFEFA" stroke="#233B37" stroke-width="5"/>
  <rect x="279" y="115" width="132" height="10" rx="5" fill="#233B37"/>
  <rect x="279" y="151" width="190" height="8" rx="4" fill="#C8CEC7"/>
  <rect x="279" y="177" width="163" height="8" rx="4" fill="#C8CEC7"/>
  <rect x="279" y="229" width="118" height="8" rx="4" fill="#C8CEC7"/>
  <rect x="279" y="255" width="164" height="8" rx="4" fill="#C8CEC7"/>
  <circle cx="455" cy="257" r="34" fill="#F0E7D8" stroke="#C49A5A" stroke-width="5"/>
  <path d="M438 256L450 268L474 240" stroke="#233B37" stroke-width="6" stroke-linecap="round" stroke-linejoin="round"/>
  <rect x="507" y="124" width="126" height="178" rx="12" fill="#E7EEE9" stroke="#233B37" stroke-width="5"/>
  <rect x="531" y="151" width="72" height="8" rx="4" fill="#233B37"/>
  <rect x="531" y="184" width="78" height="7" rx="3.5" fill="#9DAAA3"/>
  <rect x="531" y="211" width="55" height="7" rx="3.5" fill="#9DAAA3"/>
  <path d="M614 284L650 323" stroke="#233B37" stroke-width="5" stroke-linecap="round"/>
  <circle cx="657" cy="332" r="17" fill="#C49A5A"/>
  <path d="M636 93H692" stroke="#C49A5A" stroke-width="8" stroke-linecap="round"/>
  <path d="M663 65V121" stroke="#C49A5A" stroke-width="8" stroke-linecap="round"/>
</svg>
